<svg width="220" height="394" viewBox="0 0 220 394" fill="none" xmlns="http://www.w3.org/2000/svg">
<path d="M203.694 252.036L159.56 216.834L183.27 197.914C200.583 184.087 200.583 145.793 183.27 132.058L147.294 103.314L166.368 88.1231C179.749 77.4806 179.749 47.8271 166.368 37.1846L131.331 9.25944C116.952 -2.20171 99.8735 -2.20171 85.5535 9.25944L50.5163 37.1846C37.1353 47.8271 37.1353 77.4806 50.5163 88.1231L69.5902 103.314L33.614 132.058C16.3008 145.884 16.3008 184.178 33.614 197.914L58.8501 218.107L16.2421 252.127C-5.41404 269.409 -5.41404 317.346 16.2421 334.629L72.9354 379.837C96.1762 398.393 123.819 398.393 147.059 379.837L203.753 334.629C225.35 317.255 225.35 269.318 203.694 252.036Z" fill="white"/>
</svg>
