<svg width="221" height="237" viewBox="0 0 221 237" fill="none" xmlns="http://www.w3.org/2000/svg">
<g id="Brutalist Shape 150">
<path id="Vector" d="M220.864 44.7763C198.014 44.7763 179.491 24.8739 179.491 0.322266H165.878H152.265C152.265 24.8739 133.742 44.7763 110.892 44.7763C88.0421 44.7763 69.519 24.8739 69.519 0.322266H55.9062H42.2935C42.2935 24.8739 23.7704 44.7763 0.92041 44.7763V59.4028V74.0293C23.7704 74.0293 42.2935 93.9317 42.2935 118.483C42.2935 143.035 23.7704 162.937 0.92041 162.937V177.564V192.19C23.7704 192.19 42.2935 212.093 42.2935 236.644H55.9062H69.519C69.519 212.093 88.0421 192.19 110.892 192.19C133.742 192.19 152.265 212.093 152.265 236.644H165.878H179.491C179.491 212.093 198.014 192.19 220.864 192.19V177.564V162.937C198.014 162.937 179.491 143.035 179.491 118.483C179.491 93.9317 198.014 74.0293 220.864 74.0293V59.4028V44.7763ZM152.265 118.483C152.265 143.035 133.742 162.937 110.892 162.937C88.0421 162.937 69.519 143.035 69.519 118.483C69.519 93.9317 88.0421 74.0293 110.892 74.0293C133.742 74.0293 152.265 93.9317 152.265 118.483Z" fill="#FEB73F"/>
</g>
</svg>
