<svg width="178" height="179" viewBox="0 0 178 179" fill="none" xmlns="http://www.w3.org/2000/svg">
<g id="Brutalist 07">
<path id="Vector" d="M157.916 70.1712C153.263 70.1712 140.191 71.7664 126.631 74.4252C138.241 66.6705 148.832 58.384 152.155 55.0606C159.91 47.3059 159.91 34.6768 152.155 26.922C144.401 19.1673 131.771 19.1673 124.017 26.922C120.605 30.3341 112.097 41.235 104.209 53.1551C107.089 39.0637 108.818 25.1052 108.818 20.2308C108.818 9.24131 99.9107 0.334473 88.9212 0.334473C77.9316 0.334473 69.0248 9.24131 69.0248 20.2308C69.0248 24.928 70.6644 38.2218 73.3674 51.8701C65.6127 40.2601 57.3263 29.6694 54.0028 26.346C46.2481 18.5913 33.619 18.5913 25.8643 26.346C18.1096 34.1007 18.1096 46.7298 25.8643 54.4845C29.3207 57.9409 40.5318 66.6705 52.6734 74.6911C38.6263 71.855 24.7122 70.1269 19.9264 70.1269C8.93687 70.1269 0.0300293 79.0337 0.0300293 90.0232C0.0300293 101.013 8.93687 109.92 19.9264 109.92C24.5792 109.92 37.7401 108.324 51.2997 105.621C39.9557 113.243 29.7195 121.264 26.4847 124.498C18.73 132.253 18.73 144.882 26.4847 152.637C34.2394 160.392 46.8685 160.392 54.6232 152.637C57.8137 149.446 65.5684 139.565 73.0572 128.487C70.5757 141.47 69.0691 153.789 69.0691 158.265C69.0691 169.254 77.9759 178.161 88.9655 178.161C99.955 178.161 108.862 169.254 108.862 158.265C108.862 153.656 107.267 140.717 104.652 127.29C112.274 138.634 120.294 148.87 123.529 152.105C131.284 159.86 143.913 159.86 151.668 152.105C159.423 144.35 159.423 131.721 151.668 123.967C148.522 120.82 138.906 113.287 128.049 105.887C141.077 108.413 153.485 109.875 157.96 109.875C168.95 109.875 177.857 100.968 177.857 89.9789C177.857 78.9894 168.905 70.1712 157.916 70.1712Z" fill="#FF5B40"/>
</g>
</svg>
