<svg width="243" height="140" viewBox="0 0 243 140" fill="none" xmlns="http://www.w3.org/2000/svg">
<g style="mix-blend-mode:exclusion">
<path d="M60.7778 46.6434C27.1915 46.6434 0 67.5114 0 93.2869H60.7778H121.444C121.444 119.062 148.636 139.93 182.222 139.93C215.808 139.93 243 119.02 243 93.2442H182.222H121.556C121.556 67.5114 94.3641 46.6434 60.7778 46.6434Z" fill="#4286F5"/>
<path d="M0 139.888H121.556C121.556 114.112 94.3641 93.2442 60.7778 93.2442C27.2471 93.2442 0 114.155 0 139.888Z" fill="#4286F5"/>
<path d="M243 46.6434H182.222H121.556C121.556 20.8679 94.3641 0 60.7778 0C27.2471 0 0 20.8679 0 46.6434H60.7778H121.444C121.444 72.419 148.636 93.2869 182.222 93.2869C215.808 93.2869 243 72.3763 243 46.6434Z" fill="#4286F5"/>
<path d="M243 0H121.444C121.444 25.7755 148.636 46.6434 182.222 46.6434C215.808 46.6434 243 25.7328 243 0Z" fill="#4286F5"/>
</g>
</svg>
