<svg width="63" height="58" viewBox="0 0 63 58" fill="none" xmlns="http://www.w3.org/2000/svg">
<path id="Vector 10 (Stroke)" fill-rule="evenodd" clip-rule="evenodd" d="M0 0L19.9237 1.41408L29.4739 15.6484H24.6388L31.5 25.0226L38.3612 15.6484H33.5261L43.0763 1.41408L63 0V58L42.3797 55.073V36.1883L31.5 45.9179L20.6203 36.1883V55.073L0 58V0ZM3.16981 3.37948V54.3716L17.4505 52.3444V29.1185L31.5 41.6828L45.5495 29.1185V52.3444L59.8302 54.3716V3.37948L44.8529 4.44249L39.4456 12.502H44.5822L31.5 30.3758L18.4178 12.502H23.5544L18.1471 4.44249L3.16981 3.37948Z" fill="url(#paint0_linear_59_224)"/>
<defs>
<linearGradient id="paint0_linear_59_224" x1="31.5" y1="0" x2="31.5" y2="58" gradientUnits="userSpaceOnUse">
<stop stop-color="white"/>
<stop offset="1" stop-color="white" stop-opacity="1"/>
</linearGradient>
</defs>
</svg>
